<svg xmlns="http://www.w3.org/2000/svg" width="24" height="26" viewBox="0 0 24 26">
  <g id="그룹_86" data-name="그룹 86" transform="translate(-1344.029 -5.322)">
    <g id="타원_13" data-name="타원 13" transform="translate(1349.029 5.322)" fill="none" stroke="#fff" stroke-width="2">
      <circle cx="7" cy="7" r="7" stroke="none"/>
      <circle cx="7" cy="7" r="6" fill="none"/>
    </g>
    <g id="사각형_507" data-name="사각형 507" transform="translate(1344.029 17.322)" fill="none" stroke="#fff" stroke-width="2">
      <path d="M10,0h4A10,10,0,0,1,24,10v4a0,0,0,0,1,0,0H0a0,0,0,0,1,0,0V10A10,10,0,0,1,10,0Z" stroke="none"/>
      <path d="M10,1h4a9,9,0,0,1,9,9v2a1,1,0,0,1-1,1H2a1,1,0,0,1-1-1V10A9,9,0,0,1,10,1Z" fill="none"/>
    </g>
  </g>
</svg>
