<svg xmlns="http://www.w3.org/2000/svg" width="216" height="135" viewBox="0 0 216 135">
  <g id="notice_delivery" transform="translate(8531 20200)">
    <path id="패스_198" data-name="패스 198" d="M0,0H216V135H0Z" transform="translate(-8531 -20200)" fill="none"/>
    <g id="그룹_235" data-name="그룹 235" transform="translate(-9333.474 -20922.578)">
      <path id="패스_179" data-name="패스 179" d="M985.55,810.349H835.706a1.23,1.23,0,0,1-1.232-1.231v8.715a6.984,6.984,0,0,0,6.98,6.973h20.473a1.233,1.233,0,0,0,1.133-.749,17.664,17.664,0,0,1,32.489,0,1.232,1.232,0,0,0,1.133.748h28.442a1.233,1.233,0,0,0,1.133-.749,17.663,17.663,0,0,1,32.488,0,1.233,1.233,0,0,0,1.133.749H979.8a6.985,6.985,0,0,0,6.981-6.973v-8.715A1.23,1.23,0,0,1,985.55,810.349Z" fill="#9b9b9b"/>
      <path id="패스_180" data-name="패스 180" d="M879.3,816.347a14.648,14.648,0,1,0,10.522,4.474A14.586,14.586,0,0,0,879.3,816.347Zm0,22a7.38,7.38,0,1,1,7.395-7.387A7.391,7.391,0,0,1,879.3,838.349Z" fill="#9b9b9b"/>
      <path id="패스_181" data-name="패스 181" d="M942.5,816.347a14.647,14.647,0,1,0,10.522,4.474A14.586,14.586,0,0,0,942.5,816.347Zm0,22a7.38,7.38,0,1,1,7.4-7.387A7.391,7.391,0,0,1,942.5,838.349Z" fill="#9b9b9b"/>
      <path id="패스_182" data-name="패스 182" d="M984.737,784.112,952.383,751.8a6.937,6.937,0,0,0-4.935-2.043H923.963a6.984,6.984,0,0,0-6.98,6.973v38.961a4.519,4.519,0,0,1-4.517,4.511H841.454a6.984,6.984,0,0,0-6.98,6.973v1.947a1.23,1.23,0,0,0,1.232,1.231H985.55a1.23,1.23,0,0,0,1.232-1.231V789.042A7.019,7.019,0,0,0,984.737,784.112Z" fill="#d3d3d3"/>
      <path id="패스_183" data-name="패스 183" d="M948.292,759.535a3.809,3.809,0,0,0-2.738-1.169H930.417a3.788,3.788,0,0,0-3.786,3.782v15.2a3.788,3.788,0,0,0,3.786,3.783h29.661a3.782,3.782,0,0,0,2.739-6.394Z" fill="#fff"/>
      <rect id="사각형_846" data-name="사각형 846" width="76.771" height="62.163" rx="6" transform="translate(835.706 735.577)" fill="#9b9b9b"/>
    </g>
  </g>
</svg>
