<svg xmlns="http://www.w3.org/2000/svg" width="216" height="135" viewBox="0 0 216 135">
  <g id="notice_benefit_color" transform="translate(8531 20027)">
    <path id="패스_197" data-name="패스 197" d="M0,0H216V135H0Z" transform="translate(-8531 -20027)" fill="none"/>
    <g id="그룹_236" data-name="그룹 236" transform="translate(-9629.259 -20749.18)">
      <path id="패스_184" data-name="패스 184" d="M1222.326,737.458c-6.608-1.744-14.459,5.176-15.461,8.288a.113.113,0,0,1-.213,0c-.669-2.076-4.387-5.843-8.75-7.6a11.348,11.348,0,0,0-5.669-.883,8.274,8.274,0,0,0-1.042.2c-6.785,1.792-10.755,8.277-7.784,16.553a11.718,11.718,0,0,0,1.269,2.436c3.653,5.539,12.573,12.016,17.892,15.584,1.862,1.249,3.288,2.146,3.884,2.515a.583.583,0,0,0,.613,0c2.554-1.583,20.26-12.778,23.045-20.535C1233.08,745.735,1229.111,739.25,1222.326,737.458Z" fill="#2b2b2b"/>
      <path id="패스_185" data-name="패스 185" d="M1184.337,755.907c.108.179.219.359.339.54,3.653,5.539,12.573,12.016,17.892,15.584,1.862,1.249,3.288,2.145,3.884,2.515a.583.583,0,0,0,.613,0c2.353-1.458,17.55-11.069,22.112-18.639Z" fill="#302628" opacity="0.1"/>
      <rect id="사각형_847" data-name="사각형 847" width="95.776" height="70.62" rx="4.978" transform="translate(1158.871 771.561)" fill="#e67761"/>
      <rect id="사각형_848" data-name="사각형 848" width="105" height="22.334" rx="4.978" transform="translate(1154.258 757.834)" fill="#e67761"/>
      <rect id="사각형_849" data-name="사각형 849" width="15.142" height="84.347" transform="translate(1199.188 757.834)" fill="#2b2b2b"/>
      <rect id="사각형_850" data-name="사각형 850" width="14.66" height="95.776" transform="translate(1254.646 798.313) rotate(90)" fill="#2b2b2b"/>
      <rect id="사각형_851" data-name="사각형 851" width="95.776" height="2.883" transform="translate(1158.871 780.168)" fill="#302628" opacity="0.1"/>
    </g>
  </g>
</svg>
