<svg xmlns="http://www.w3.org/2000/svg" width="139.037" height="118.062" viewBox="0 0 139.037 118.062">
  <g id="그룹_184" data-name="그룹 184" transform="translate(-84.979 -381.094)">
    <g id="그룹_181" data-name="그룹 181">
      <path id="패스_49" data-name="패스 49" d="M126.2,478.547a20.609,20.609,0,1,1-20.609-20.609A20.649,20.649,0,0,1,126.2,478.547Zm-28.418,0a7.809,7.809,0,1,0,7.809-7.809A7.765,7.765,0,0,0,97.779,478.547Z" fill="#fff"/>
      <path id="패스_50" data-name="패스 50" d="M167.257,475.568v16.584a6.373,6.373,0,0,1-6.36,6.36,6.443,6.443,0,0,1-6.44-6.36V475.568a4.879,4.879,0,0,0-4.911-4.91,4.947,4.947,0,0,0-4.991,4.91v16.584a6.36,6.36,0,0,1-12.72,0V464.378a6.048,6.048,0,0,1,6.038-6.118,6.429,6.429,0,0,1,3.864,1.369,17.928,17.928,0,0,1,7.809-1.772A17.711,17.711,0,0,1,167.257,475.568Z" fill="#fff"/>
      <path id="패스_51" data-name="패스 51" d="M183.2,492.716A5.757,5.757,0,1,1,177.4,487,5.772,5.772,0,0,1,183.2,492.716Z" fill="#fff"/>
      <path id="패스_52" data-name="패스 52" d="M206.225,499.156a17.8,17.8,0,0,1-17.792-17.791V464.62a6.4,6.4,0,0,1,12.8,0v16.745a4.992,4.992,0,0,0,9.983,0V464.62a6.4,6.4,0,0,1,12.8,0v16.745A17.8,17.8,0,0,1,206.225,499.156Z" fill="#fff"/>
    </g>
    <g id="그룹_183" data-name="그룹 183">
      <g id="그룹_182" data-name="그룹 182">
        <path id="패스_53" data-name="패스 53" d="M138.033,416.982A2.984,2.984,0,1,1,135.049,414,2.984,2.984,0,0,1,138.033,416.982Z" fill="#fff"/>
      </g>
      <path id="패스_54" data-name="패스 54" d="M182.5,416.488c-.014.05-.019.083-.027.121v.152A1.753,1.753,0,0,1,182.5,416.488Z" fill="#fff"/>
      <path id="패스_55" data-name="패스 55" d="M195.523,419.485a2.078,2.078,0,0,0-1.891-2.321,2.047,2.047,0,0,0-1.8,1.042,2.257,2.257,0,0,0-.319.978c-.089,1.148-.2,2.216-.33,3.238-1.067,5.1-3.452,12.552-10.368,15.212,0-.035.271-3.323.271-4.8h0a15.662,15.662,0,0,0-15.616-15.616h-6.714c-.676-.019-4.092-.139-5.156-.242a9.075,9.075,0,0,1-8.838-9.042v-11.8h.028c0-.056,0-.106,0-.162a1.4,1.4,0,0,1,1.393-1.393h.007a1.385,1.385,0,0,1,1.289.883v11.629c0,4.45,3.641,7.186,8.091,7.186s8.091-2.736,8.091-7.186V391.252a8.048,8.048,0,0,0-2.007-5.307c-4.705-6.574-14.743-4.561-14.743-4.561a9.862,9.862,0,0,0-7.681,6.857H126.449l-.012,0h-1.9c-.929.3-1.788,1.19-1.487,3.6.6,4.793,2.094,14.412,14.73,13.8l.069,11.576.126,20.966s-3.927-.752-3.927,2.079,4.389,1.964,4.389,1.964h41.7s15.234-1.913,15.379-22.719V419.5S195.523,419.49,195.523,419.485Z" fill="#fff"/>
    </g>
  </g>
</svg>
