<svg id="notice_best_reviw_color" xmlns="http://www.w3.org/2000/svg" width="225.646" height="69.797" viewBox="0 0 225.646 69.797">
  <path id="패스_102" data-name="패스 102" d="M2558.261-308.31a24.684,24.684,0,0,0-1.828-22.816,23.161,23.161,0,0,0-19.533-10.9H2374.011c-12.886,0-23.332,10.766-23.332,24.047s10.446,24.048,23.332,24.048H2536.9A23.312,23.312,0,0,0,2558.261-308.31Z" transform="translate(-2334.584 352.875)" fill="#2b2b2b" fill-rule="evenodd"/>
  <path id="패스_103" data-name="패스 103" d="M2283.5-352.412a34.67,34.67,0,0,0,34.438,34.9,34.67,34.67,0,0,0,34.438-34.9,34.67,34.67,0,0,0-34.438-34.9A34.67,34.67,0,0,0,2283.5-352.412Z" transform="translate(-2283.504 387.311)" fill="#e67761" fill-rule="evenodd"/>
  <g id="그룹_207" data-name="그룹 207" transform="translate(79.121 24.896)">
    <path id="패스_104" data-name="패스 104" d="M2638.238-267.617l-5.711-2.875-5.732,2.825.97-6.317-4.46-4.582,6.308-1.025,2.978-5.658,2.928,5.682,6.3,1.082-4.5,4.543Z" transform="translate(-2623.305 285.249)" fill="#ffcc56"/>
    <path id="패스_105" data-name="패스 105" d="M2755.6-267.617l-5.707-2.875-5.732,2.825.969-6.317-4.46-4.582,6.308-1.025,2.98-5.658,2.925,5.682,6.3,1.082-4.5,4.543Z" transform="translate(-2712.545 285.249)" fill="#ffcc56"/>
    <path id="패스_106" data-name="패스 106" d="M2872.967-267.617l-5.708-2.875-5.735,2.825.973-6.317-4.459-4.582,6.307-1.025,2.976-5.658,2.927,5.682,6.3,1.082-4.5,4.543Z" transform="translate(-2801.793 285.249)" fill="#ffcc56"/>
    <path id="패스_107" data-name="패스 107" d="M2990.327-267.617l-5.71-2.875-5.733,2.825.969-6.317-4.456-4.582,6.307-1.025,2.978-5.658,2.925,5.682,6.3,1.082-4.5,4.543Z" transform="translate(-2891.032 285.249)" fill="#ffcc56"/>
    <path id="패스_108" data-name="패스 108" d="M3107.688-267.617l-5.711-2.875-5.729,2.825.97-6.317-4.459-4.582,6.307-1.025,2.975-5.658,2.931,5.682,6.3,1.082-4.5,4.543Z" transform="translate(-2980.271 285.249)" fill="#ffcc56"/>
  </g>
  <g id="그룹_208" data-name="그룹 208" transform="translate(19.152 26.028)">
    <path id="패스_109" data-name="패스 109" d="M2363.68-270.154l.984-9.428h9.007v2.46h-6.642l-.515,4.274a4.552,4.552,0,0,1,1.166-.614,4.756,4.756,0,0,1,1.492-.264,4.682,4.682,0,0,1,3.76,1.522,6.184,6.184,0,0,1,1.358,4.227,5.911,5.911,0,0,1-1.427,4.1,5.269,5.269,0,0,1-4.135,1.592,5.9,5.9,0,0,1-3.8-1.235,4.076,4.076,0,0,1-1.493-3.507l.023-.059,2.658-.093a2.524,2.524,0,0,0,.728,1.924,2.625,2.625,0,0,0,1.885.687,2.36,2.36,0,0,0,2.019-.931,4.013,4.013,0,0,0,.7-2.465,4.13,4.13,0,0,0-.713-2.512,2.386,2.386,0,0,0-2.039-.966,3.142,3.142,0,0,0-1.74.384,2.157,2.157,0,0,0-.826,1.1Z" transform="translate(-2363.432 279.827)" fill="#2b2b2b"/>
    <path id="패스_110" data-name="패스 110" d="M2424.046-217.076h-2.835V-219.8h2.835Z" transform="translate(-2407.366 234.373)" fill="#2b2b2b"/>
    <path id="패스_111" data-name="패스 111" d="M2457.961-269.878a7.578,7.578,0,0,1-1.5,5.071,5.094,5.094,0,0,1-4.075,1.744,5.139,5.139,0,0,1-4.1-1.744,7.54,7.54,0,0,1-1.511-5.071v-3.9a7.6,7.6,0,0,1,1.5-5.071,5.1,5.1,0,0,1,4.088-1.757,5.115,5.115,0,0,1,4.087,1.757,7.558,7.558,0,0,1,1.511,5.071Zm-2.846-4.337a5.462,5.462,0,0,0-.7-3.1,2.345,2.345,0,0,0-2.05-1.006,2.326,2.326,0,0,0-2.043,1.006,5.494,5.494,0,0,0-.7,3.1v4.738a5.5,5.5,0,0,0,.709,3.119,2.35,2.35,0,0,0,2.056,1.012,2.313,2.313,0,0,0,2.037-1.006,5.6,5.6,0,0,0,.691-3.124Z" transform="translate(-2426.805 280.605)" fill="#2b2b2b"/>
  </g>
</svg>
