<svg xmlns="http://www.w3.org/2000/svg" width="216" height="135" viewBox="0 0 216 135">
  <g id="notice_caution_color" transform="translate(8531 19854)">
    <path id="패스_199" data-name="패스 199" d="M0,0H216V135H0Z" transform="translate(-8531 -19854)" fill="none"/>
    <g id="그룹_237" data-name="그룹 237" transform="translate(-9328.186 -20749.854)">
      <path id="패스_186" data-name="패스 186" d="M944.077,924.963a55,55,0,1,0,0,77.781A55,55,0,0,0,944.077,924.963Zm-68.21,9.572a41.482,41.482,0,0,1,52.835-4.841L871.026,987.37a41.485,41.485,0,0,1,4.841-52.835Zm29.319,70.782a41.166,41.166,0,0,1-23.516-7.3l57.676-57.677a41.47,41.47,0,0,1-34.16,64.98Z" fill="#e67761"/>
    </g>
  </g>
</svg>
