<svg id="그룹_175" data-name="그룹 175" xmlns="http://www.w3.org/2000/svg" width="47" height="47" viewBox="0 0 47 47">
  <circle id="타원_21" data-name="타원 21" cx="23.5" cy="23.5" r="23.5" transform="translate(0 0)" fill="#e57965"/>
  <g id="그룹_174" data-name="그룹 174" transform="translate(2)">
    <g id="그룹_173" data-name="그룹 173">
      <path id="패스_43" data-name="패스 43" d="M14.267,24.482a1.3,1.3,0,1,1-1.3-1.3A1.3,1.3,0,0,1,14.267,24.482Z" fill="#fff"/>
    </g>
    <path id="패스_44" data-name="패스 44" d="M39.272,25.571a.905.905,0,0,0-.823-1.01.891.891,0,0,0-.782.453.983.983,0,0,0-.138.425c-.039.5-.088.965-.144,1.409-.464,2.22-1.5,5.459-4.51,6.616,0-.015.118-1.445.118-2.09h0A6.812,6.812,0,0,0,26.2,24.582h-2.92c-.294-.008-1.78-.06-2.243-.105a3.947,3.947,0,0,1-3.844-3.933V15.412h.013c0-.025,0-.046,0-.071a.608.608,0,0,1,.606-.606h0a.6.6,0,0,1,.561.384v5.058c0,1.936,1.583,3.126,3.519,3.126s3.519-1.19,3.519-3.126V13.291a3.5,3.5,0,0,0-.873-2.308C22.5,8.123,18.129,9,18.129,9a4.287,4.287,0,0,0-3.341,2.982H8.4c-.4.128-.778.517-.647,1.565.261,2.084.911,6.268,6.407,6l.03,5.035.054,9.119s-1.708-.327-1.708.9,1.909.854,1.909.854H32.583s6.626-.832,6.689-9.881v-.008Z" fill="#fff"/>
  </g>
</svg>
