<svg xmlns="http://www.w3.org/2000/svg" width="102" height="30" viewBox="0 0 102 30">
  <g id="그룹_99" data-name="그룹 99" transform="translate(-371.642 -455.826)">
    <path id="패스_15" data-name="패스 15" d="M411.939,483.181c-.007.025-.01.042-.014.061v.077A.894.894,0,0,1,411.939,483.181Z" transform="translate(-12.629 -9.005)" fill="#fff"/>
    <g id="그룹_96" data-name="그룹 96" transform="translate(371.642 455.826)">
      <g id="그룹_95" data-name="그룹 95" transform="translate(4.58 16.062)">
        <path id="패스_16" data-name="패스 16" d="M381.278,481.354a1.507,1.507,0,1,1-1.506-1.507A1.506,1.506,0,0,1,381.278,481.354Z" transform="translate(-378.265 -479.847)" fill="#fff"/>
      </g>
      <path id="패스_17" data-name="패스 17" d="M415.078,481.665c-.007.025-.01.042-.014.062v.076A.913.913,0,0,1,415.078,481.665Z" transform="translate(-385.035 -464.332)" fill="#fff"/>
      <path id="패스_18" data-name="패스 18" d="M408.26,474.629a1.028,1.028,0,0,0-.955-1.136,1.039,1.039,0,0,0-.908.51,1.082,1.082,0,0,0-.16.479c-.046.562-.1,1.085-.167,1.586-.539,2.5-1.743,6.147-5.234,7.451,0-.017.136-1.628.136-2.353h0a7.791,7.791,0,0,0-7.884-7.648H389.7c-.342-.009-2.066-.068-2.6-.119a4.511,4.511,0,0,1-4.461-4.428v-5.78h.014c0-.028,0-.052,0-.08a.7.7,0,0,1,.7-.682h0a.7.7,0,0,1,.651.433v5.7c0,2.18,1.838,3.519,4.085,3.519s4.084-1.34,4.084-3.519V460.8a3.873,3.873,0,0,0-1.012-2.6c-2.375-3.22-7.443-2.234-7.443-2.234a4.947,4.947,0,0,0-3.878,3.358h-6.453l-.006,0h-.957c-.469.145-.9.583-.75,1.762.3,2.347,1.057,7.058,7.436,6.76l.035,5.67.063,10.269s-1.983-.369-1.983,1.018,2.216.962,2.216.962H400.5s7.692-.937,7.765-11.127v-.009Z" transform="translate(-371.642 -455.826)" fill="#fff"/>
    </g>
    <g id="그룹_97" data-name="그룹 97" transform="translate(403.447 464.976)">
      <path id="패스_19" data-name="패스 19" d="M439.534,480.857a10.4,10.4,0,1,1-10.405-10.405A10.425,10.425,0,0,1,439.534,480.857Zm-14.347,0a3.942,3.942,0,1,0,3.942-3.943A3.92,3.92,0,0,0,425.187,480.857Z" transform="translate(-418.724 -470.412)" fill="#fff"/>
      <path id="패스_20" data-name="패스 20" d="M470.814,479.335v8.373a3.218,3.218,0,0,1-3.211,3.211,3.253,3.253,0,0,1-3.252-3.211v-8.373a2.463,2.463,0,0,0-2.479-2.479,2.5,2.5,0,0,0-2.519,2.479v8.373a3.211,3.211,0,0,1-6.422,0V473.686a3.053,3.053,0,0,1,3.048-3.089,3.245,3.245,0,0,1,1.951.691,9.058,9.058,0,0,1,3.943-.894A8.942,8.942,0,0,1,470.814,479.335Z" transform="translate(-429.275 -470.394)" fill="#fff"/>
      <path id="패스_21" data-name="패스 21" d="M487.837,494.555a2.906,2.906,0,1,1-2.927-2.886A2.914,2.914,0,0,1,487.837,494.555Z" transform="translate(-438.248 -476.956)" fill="#fff"/>
      <path id="패스_22" data-name="패스 22" d="M503.231,491.335a8.985,8.985,0,0,1-8.982-8.982V473.9a3.231,3.231,0,0,1,6.463,0v8.454a2.52,2.52,0,1,0,5.039,0V473.9a3.231,3.231,0,0,1,6.463,0v8.454A8.985,8.985,0,0,1,503.231,491.335Z" transform="translate(-442.019 -470.485)" fill="#fff"/>
    </g>
  </g>
</svg>
