<svg xmlns="http://www.w3.org/2000/svg" width="23.969" height="26.002" viewBox="0 0 23.969 26.002">
  <g id="그룹_151" data-name="그룹 151" transform="translate(-1592 -49)">
    <g id="합치기_5" data-name="합치기 5" transform="translate(1591.998 49.002)" fill="none">
      <path d="M22.212,25.677l-5.544-5.945a1.021,1.021,0,0,1-.119-.154,10.684,10.684,0,1,1,1.571-1.266l.034.035L23.7,24.291a1.016,1.016,0,0,1-1.487,1.386Z" stroke="none"/>
      <path d="M 10.67310047149658 19.33989906311035 C 12.37946033477783 19.33989906311035 14.03003025054932 18.84504890441895 15.44638061523438 17.90884017944336 L 16.13317680358887 17.45486640930176 L 16.72412109375 16.87884902954102 C 18.41324996948242 15.23238945007324 19.3435001373291 13.02688980102539 19.3435001373291 10.66859912872314 C 19.3435001373291 5.887729167938232 15.45397090911865 1.998199343681335 10.67310047149658 1.998199343681335 C 5.891730785369873 1.998199343681335 2.001800537109375 5.887729167938232 2.001800537109375 10.66859912872314 C 2.001800537109375 15.44996929168701 5.891730785369873 19.33989906311035 10.67310047149658 19.33989906311035 M 22.95590972900391 26.00016975402832 C 22.68389129638672 26.00017929077148 22.41252136230469 25.89163970947266 22.21199989318848 25.67700004577637 L 16.66800117492676 19.73159980773926 C 16.62273979187012 19.68315887451172 16.58320045471191 19.63142013549805 16.54923057556152 19.57728958129883 C 14.86413097381592 20.69113922119141 12.84420108795166 21.33989906311035 10.67310047149658 21.33989906311035 C 4.779000759124756 21.33989906311035 0.001800636295229197 16.56180000305176 0.001800636295229197 10.66859912872314 C 0.001800636295229197 4.775399208068848 4.779000759124756 -0.00180062314029783 10.67310047149658 -0.00180062314029783 C 16.5663013458252 -0.00180062314029783 21.3435001373291 4.775399208068848 21.3435001373291 10.66859912872314 C 21.3435001373291 13.66483974456787 20.10871124267578 16.37269973754883 18.12013053894043 18.31103897094727 C 18.13158988952637 18.3222599029541 18.14286041259766 18.3337287902832 18.15390014648438 18.34560012817383 L 23.69880104064941 24.2909984588623 C 24.08130073547363 24.7013988494873 24.05879974365234 25.34490013122559 23.64840126037598 25.7273998260498 C 23.45264053344727 25.90984916687012 23.20400047302246 26.00014877319336 22.95590972900391 26.00016975402832 Z" stroke="none" fill="#000"/>
    </g>
  </g>
</svg>
