<svg xmlns="http://www.w3.org/2000/svg" width="24.002" height="25.998" viewBox="0 0 24.002 25.998">
  <g id="그룹_171" data-name="그룹 171" transform="translate(20659.002 22218.998)">
    <path id="패스_42" data-name="패스 42" d="M-20651.937-22251h10.127" transform="translate(-0.127 39.998)" fill="#fff" stroke="#fff" stroke-width="2"/>
    <g id="합치기_2" data-name="합치기 2" transform="translate(-42866 -44407)" fill="none">
      <path d="M22209,22214a2,2,0,0,1-2-2v-15a2.005,2.005,0,0,1,2-2h3a7,7,0,0,1,14,0h3a2,2,0,0,1,2,2v15a2,2,0,0,1-2,2Z" stroke="none"/>
      <path d="M 22228.998046875 22212 C 22228.998046875 22212 22229 22212 22229 22212 C 22229 22212 22229 22211.998046875 22229 22211.998046875 L 22228.998046875 22196.998046875 L 22224.001953125 22196.998046875 L 22224.001953125 22194.998046875 C 22224.001953125 22192.244140625 22221.7578125 22190.001953125 22219 22190.001953125 C 22216.2421875 22190.001953125 22213.998046875 22192.244140625 22213.998046875 22194.998046875 L 22213.998046875 22196.998046875 L 22209.001953125 22196.998046875 C 22209.001953125 22196.998046875 22208.998046875 22197 22208.998046875 22197 C 22208.998046875 22197 22208.998046875 22197 22208.998046875 22197 L 22208.99609375 22211.998046875 L 22209.001953125 22212 L 22228.998046875 22212 M 22228.998046875 22214 L 22209.001953125 22214 C 22207.896484375 22214 22206.998046875 22213.107421875 22206.998046875 22211.998046875 L 22206.998046875 22197 C 22206.998046875 22195.896484375 22207.896484375 22194.998046875 22209.001953125 22194.998046875 L 22211.998046875 22194.998046875 C 22211.998046875 22191.13671875 22215.1328125 22188.001953125 22219 22188.001953125 C 22222.865234375 22188.001953125 22226.001953125 22191.13671875 22226.001953125 22194.998046875 L 22228.998046875 22194.998046875 C 22230.107421875 22194.998046875 22231 22195.896484375 22231 22197 L 22231 22211.998046875 C 22231 22213.107421875 22230.107421875 22214 22228.998046875 22214 Z" stroke="none" fill="#fff"/>
    </g>
  </g>
</svg>
