<svg xmlns="http://www.w3.org/2000/svg" width="242.877" height="129.335" viewBox="0 0 242.877 129.335">
  <g id="layer_flower" transform="translate(-1338.071 -2538.181)">
    <g id="layer-flower" transform="translate(1340.579 2540.719)">
      <path id="패스_72" data-name="패스 72" d="M280.861,174.25s3.728,45.782,29.416,46.818,27.345-43.156,27.345-43.156,2.9-21.268-6.629-23.238-12.844,17.618-12.844,17.618,4.351-24.558-4.35-25.179-13.258,23.616-13.258,23.616-.414-27.759-12.637-24.859S280.861,174.25,280.861,174.25Z" transform="translate(-279.771 -145.659)" fill="#ffd400" stroke="#161615" stroke-linejoin="round" stroke-width="5"/>
      <path id="패스_73" data-name="패스 73" d="M308.147,226.845s9.53,47.665,16.573,48.579c0,0,4.053,3.193.783-12.136s-7.84-31.867-8.041-36.442Z" transform="translate(-281.784 -151.418)" fill="#2b9138" stroke="#161615" stroke-linejoin="round" stroke-width="5"/>
      <path id="패스_74" data-name="패스 74" d="M324.349,251.351s-5.387-16.159,13.672-23.41C338.022,227.941,340.715,248.244,324.349,251.351Z" transform="translate(-282.883 -151.496)" fill="#2b9138" stroke="#161615" stroke-linejoin="round" stroke-width="5"/>
      <path id="패스_75" data-name="패스 75" d="M288.079,259.266s19.366-6.366,28.431,7.175C316.51,266.441,303.409,279.153,288.079,259.266Z" transform="translate(-280.36 -153.612)" fill="#2b9138" stroke="#161615" stroke-linejoin="round" stroke-width="5"/>
    </g>
    <g id="layer-flower-2" data-name="layer-flower" transform="translate(1430.366 2540.719)">
      <path id="패스_72-2" data-name="패스 72" d="M280.861,174.25s3.728,45.782,29.416,46.818,27.345-43.156,27.345-43.156,2.9-21.268-6.629-23.238-12.844,17.618-12.844,17.618,4.351-24.558-4.35-25.179-13.258,23.616-13.258,23.616-.414-27.759-12.637-24.859S280.861,174.25,280.861,174.25Z" transform="translate(-279.771 -145.659)" fill="#ffd400" stroke="#161615" stroke-linejoin="round" stroke-width="5"/>
      <path id="패스_73-2" data-name="패스 73" d="M308.147,226.845s9.53,47.665,16.573,48.579c0,0,4.053,3.193.783-12.136s-7.84-31.867-8.041-36.442Z" transform="translate(-281.783 -151.418)" fill="#2b9138" stroke="#161615" stroke-linejoin="round" stroke-width="5"/>
      <path id="패스_74-2" data-name="패스 74" d="M324.349,251.351s-5.387-16.159,13.672-23.41C338.022,227.941,340.715,248.244,324.349,251.351Z" transform="translate(-282.883 -151.496)" fill="#2b9138" stroke="#161615" stroke-linejoin="round" stroke-width="5"/>
      <path id="패스_75-2" data-name="패스 75" d="M288.079,259.266s19.366-6.366,28.431,7.175C316.51,266.441,303.409,279.153,288.079,259.266Z" transform="translate(-280.36 -153.612)" fill="#2b9138" stroke="#161615" stroke-linejoin="round" stroke-width="5"/>
    </g>
    <g id="layer-flower-3" data-name="layer-flower" transform="translate(1520.154 2540.719)">
      <path id="패스_72-3" data-name="패스 72" d="M280.861,174.25s3.728,45.782,29.416,46.818,27.345-43.156,27.345-43.156,2.9-21.268-6.629-23.238-12.844,17.618-12.844,17.618,4.351-24.558-4.35-25.179-13.258,23.616-13.258,23.616-.414-27.759-12.637-24.859S280.861,174.25,280.861,174.25Z" transform="translate(-279.771 -145.659)" fill="#ffd400" stroke="#161615" stroke-linejoin="round" stroke-width="5"/>
      <path id="패스_73-3" data-name="패스 73" d="M308.147,226.845s9.53,47.665,16.573,48.579c0,0,4.053,3.193.783-12.136s-7.84-31.867-8.041-36.442Z" transform="translate(-281.783 -151.418)" fill="#2b9138" stroke="#161615" stroke-linejoin="round" stroke-width="5"/>
      <path id="패스_74-3" data-name="패스 74" d="M324.349,251.351s-5.387-16.159,13.672-23.41C338.022,227.941,340.715,248.244,324.349,251.351Z" transform="translate(-282.882 -151.496)" fill="#2b9138" stroke="#161615" stroke-linejoin="round" stroke-width="5"/>
      <path id="패스_75-3" data-name="패스 75" d="M288.079,259.266s19.366-6.366,28.431,7.175C316.51,266.441,303.409,279.153,288.079,259.266Z" transform="translate(-280.36 -153.612)" fill="#2b9138" stroke="#161615" stroke-linejoin="round" stroke-width="5"/>
    </g>
  </g>
</svg>
