<svg xmlns="http://www.w3.org/2000/svg" width="322.043" height="93.374" viewBox="0 0 322.043 93.374">
  <g id="layer-grass" transform="translate(-662.973 -4420.21)">
    <path id="layer-grass-2" data-name="layer-grass" d="M252.921,349.613s9.41,28.232,33.432,28.974,39.375-9.658,39.375-9.658,17.866-12.877,21.05-24.269-3.467-15.354-3.467-15.354-9.658-7.605-24.517,22.288c0,0,18.078-30.46,5.7-41.6s-20.059,34.318-20.059,34.318,5.944-57.349-10.9-53.882-14.364,31.946-9.411,57.206c0,0-10.9-28.479-27.736-19.812C256.388,327.821,246.234,333.268,252.921,349.613Z" transform="translate(414.858 4132.457)" fill="#2a9038" stroke="#161615" stroke-linejoin="round" stroke-width="5"/>
    <path id="layer-grass-3" data-name="layer-grass" d="M252.921,349.613s9.41,28.232,33.432,28.974,39.375-9.658,39.375-9.658,17.866-12.877,21.05-24.269-3.467-15.354-3.467-15.354-9.658-7.605-24.517,22.288c0,0,18.078-30.46,5.7-41.6s-20.059,34.318-20.059,34.318,5.944-57.349-10.9-53.882-14.364,31.946-9.411,57.206c0,0-10.9-28.479-27.736-19.812C256.388,327.821,246.234,333.268,252.921,349.613Z" transform="translate(524.858 4132.457)" fill="#2a9038" stroke="#161615" stroke-linejoin="round" stroke-width="5"/>
    <path id="layer-grass-4" data-name="layer-grass" d="M252.921,349.613s9.41,28.232,33.432,28.974,39.375-9.658,39.375-9.658,17.866-12.877,21.05-24.269-3.467-15.354-3.467-15.354-9.658-7.605-24.517,22.288c0,0,18.078-30.46,5.7-41.6s-20.059,34.318-20.059,34.318,5.944-57.349-10.9-53.882-14.364,31.946-9.411,57.206c0,0-10.9-28.479-27.736-19.812C256.388,327.821,246.234,333.268,252.921,349.613Z" transform="translate(634.858 4132.457)" fill="#2a9038" stroke="#161615" stroke-linejoin="round" stroke-width="5"/>
  </g>
</svg>
